<svg viewBox="0 0 1024 1024" width="1024" height="1024" xmlns="http://www.w3.org/2000/svg">
  <defs>
    
    <radialGradient id="supernova_adaptive_halo" cx="50%" cy="50%" r="50%">
      <stop offset="0%" stop-color="#FFFFFF" stop-opacity="1"/>
      <stop offset="28%" stop-color="#A5F3FC" stop-opacity="0.85"/>
      <stop offset="60%" stop-color="#06B6D4" stop-opacity="0.5"/>
      <stop offset="100%" stop-color="#0891B2" stop-opacity="0"/>
    </radialGradient>
    <radialGradient id="supernova_adaptive_beam" cx="50%" cy="50%" r="50%">
      <stop offset="0%" stop-color="#FFFFFF" stop-opacity="1"/>
      <stop offset="50%" stop-color="#67E8F9" stop-opacity="0.85"/>
      <stop offset="100%" stop-color="#06B6D4" stop-opacity="0"/>
    </radialGradient>
    
  </defs>

  

  <!-- Speedometer Arc -->
  <path d="M 341.66,725.00 A 265.00,265.00 0 0 1 558.02,261.03" fill="none" stroke="#4A80E8" stroke-width="58.0" stroke-linecap="round"/>
  <path d="M 558.02,261.03 A 265.00,265.00 0 0 1 774.42,485.12" fill="none" stroke="#42B558" stroke-width="58.0" stroke-linecap="round"/>
  <circle cx="774.42" cy="485.12" r="29.0" fill="#DE6032"/>
  <path d="M 774.42,485.12 A 265.00,265.00 0 0 1 682.34,725.00" fill="none" stroke="#D84F2A" stroke-width="58.0" stroke-linecap="round"/>

  <!-- Instrument Ticks -->
  <line x1="352.50" y1="681.50" x2="296.73" y2="737.27" stroke="rgba(255, 255, 255, 0.26)" stroke-width="9.8" stroke-linecap="round"/>
  <line x1="671.50" y1="681.50" x2="727.27" y2="737.27" stroke="rgba(255, 255, 255, 0.26)" stroke-width="9.8" stroke-linecap="round"/>

  <!-- Needle & Hub -->
  <path d="M 529.42,500.56 L 732.31,378.64 L 742.01,394.78 L 539.11,516.69 Z" fill="#FFFFFF"/>
  <path fill-rule="evenodd" d="M 512.00,487.37 a 34.63,34.63 0 1,0 0.001,0 Z M 512.00,496.03 a 25.97,25.97 0 1,1 -0.001,0 Z" fill="#FFFFFF"/>

  <!-- Satellite Spoke Connectors -->
  <line x1="737.16" y1="386.71" x2="785.64" y2="350.35" stroke="#B0C4DE" stroke-width="5.6" stroke-linecap="round" opacity="0.88"/>
  <line x1="737.16" y1="386.71" x2="779.58" y2="418.74" stroke="#B0C4DE" stroke-width="5.6" stroke-linecap="round" opacity="0.88"/>
  <line x1="737.16" y1="386.71" x2="708.59" y2="420.47" stroke="#B0C4DE" stroke-width="5.6" stroke-linecap="round" opacity="0.88"/>

  <!-- Satellite Nodes -->
  <circle cx="785.64" cy="350.35" r="16.0" fill="#42B558"/>
  <circle cx="779.58" cy="418.74" r="14.3" fill="#FFFFFF"/>
  <circle cx="708.59" cy="420.47" r="14.3" fill="#4A80E8"/>

  <!-- Main Crown Bulb -->
  <circle cx="737.16" cy="386.71" r="23.4" fill="#FFFFFF"/>

  <!-- Supernova Flare Layer -->
  
    <!-- Supernova Aura -->
    <circle cx="737.16" cy="386.71" r="84.8" fill="url(#supernova_adaptive_halo)"/>
    
    <!-- 8-point Supernova Starburst -->
    <g transform="translate(737.16, 386.71)">
      <polygon points="-103.9,0 0,-11.3 103.9,0 0,11.3" fill="url(#supernova_adaptive_beam)"/>
      <polygon points="0,-103.9 -11.3,0 0,103.9 11.3,0" fill="url(#supernova_adaptive_beam)"/>
      <g transform="rotate(45)">
        <polygon points="-62.3,0 0,-6.5 62.3,0 0,6.5" fill="url(#supernova_adaptive_beam)" opacity="0.85"/>
        <polygon points="0,-62.3 -6.5,0 0,62.3 6.5,0" fill="url(#supernova_adaptive_beam)" opacity="0.85"/>
      </g>
    </g>
    

  <!-- Luminous Core -->
  <circle cx="737.16" cy="386.71" r="14.0" fill="#FFFFFF"/>
</svg>