<svg viewBox="0 0 1024 1024" width="1024" height="1024" xmlns="http://www.w3.org/2000/svg">
  <defs>
    
    <radialGradient id="supernova_full_halo" cx="50%" cy="50%" r="50%">
      <stop offset="0%" stop-color="#FFFFFF" stop-opacity="1"/>
      <stop offset="28%" stop-color="#A5F3FC" stop-opacity="0.85"/>
      <stop offset="60%" stop-color="#06B6D4" stop-opacity="0.5"/>
      <stop offset="100%" stop-color="#0891B2" stop-opacity="0"/>
    </radialGradient>
    <radialGradient id="supernova_full_beam" cx="50%" cy="50%" r="50%">
      <stop offset="0%" stop-color="#FFFFFF" stop-opacity="1"/>
      <stop offset="50%" stop-color="#67E8F9" stop-opacity="0.85"/>
      <stop offset="100%" stop-color="#06B6D4" stop-opacity="0"/>
    </radialGradient>
    
  </defs>

  <rect width="1024" height="1024" fill="#131317"/>

  <!-- Speedometer Arc -->
  <path d="M 285.74,793.65 A 352.00,352.00 0 0 1 573.12,177.35" fill="none" stroke="#4A80E8" stroke-width="76.0" stroke-linecap="round"/>
  <path d="M 573.12,177.35 A 352.00,352.00 0 0 1 860.57,475.01" fill="none" stroke="#42B558" stroke-width="76.0" stroke-linecap="round"/>
  <circle cx="860.57" cy="475.01" r="38.0" fill="#DE6032"/>
  <path d="M 860.57,475.01 A 352.00,352.00 0 0 1 738.26,793.65" fill="none" stroke="#D84F2A" stroke-width="76.0" stroke-linecap="round"/>

  <!-- Instrument Ticks -->
  <line x1="299.64" y1="736.36" x2="226.56" y2="809.44" stroke="rgba(255, 255, 255, 0.26)" stroke-width="13.0" stroke-linecap="round"/>
  <line x1="724.36" y1="736.36" x2="797.44" y2="809.44" stroke="rgba(255, 255, 255, 0.26)" stroke-width="13.0" stroke-linecap="round"/>

  <!-- Needle & Hub -->
  <path d="M 535.13,495.52 L 804.68,333.56 L 817.56,354.99 L 548.01,516.95 Z" fill="#FFFFFF"/>
  <circle cx="512.00" cy="524.00" r="46.0" fill="#FFFFFF"/>
  <circle cx="512.00" cy="524.00" r="34.5" fill="#131317"/>

  <!-- Satellite Spoke Connectors -->
  <line x1="811.12" y1="344.27" x2="875.52" y2="295.97" stroke="#B0C4DE" stroke-width="7.5" stroke-linecap="round" opacity="0.88"/>
  <line x1="811.12" y1="344.27" x2="867.47" y2="386.82" stroke="#B0C4DE" stroke-width="7.5" stroke-linecap="round" opacity="0.88"/>
  <line x1="811.12" y1="344.27" x2="773.17" y2="389.12" stroke="#B0C4DE" stroke-width="7.5" stroke-linecap="round" opacity="0.88"/>

  <!-- Satellite Nodes -->
  <circle cx="875.52" cy="295.97" r="21.3" fill="#42B558"/>
  <circle cx="867.47" cy="386.82" r="19.0" fill="#FFFFFF"/>
  <circle cx="773.17" cy="389.12" r="19.0" fill="#4A80E8"/>

  <!-- Main Crown Bulb -->
  <circle cx="811.12" cy="344.27" r="31.0" fill="#FFFFFF"/>

  <!-- Supernova Flare Layer -->
  
    <!-- Supernova Aura -->
    <circle cx="811.12" cy="344.27" r="112.7" fill="url(#supernova_full_halo)"/>
    
    <!-- 8-point Supernova Starburst -->
    <g transform="translate(811.12, 344.27)">
      <polygon points="-138.0,0 0,-14.9 138.0,0 0,14.9" fill="url(#supernova_full_beam)"/>
      <polygon points="0,-138.0 -14.9,0 0,138.0 14.9,0" fill="url(#supernova_full_beam)"/>
      <g transform="rotate(45)">
        <polygon points="-82.8,0 0,-8.6 82.8,0 0,8.6" fill="url(#supernova_full_beam)" opacity="0.85"/>
        <polygon points="0,-82.8 -8.6,0 0,82.8 8.6,0" fill="url(#supernova_full_beam)" opacity="0.85"/>
      </g>
    </g>
    

  <!-- Luminous Core -->
  <circle cx="811.12" cy="344.27" r="18.6" fill="#FFFFFF"/>
</svg>